<?xml version="1.0" encoding="UTF-8"?>
<svg width="49px" height="47px" viewBox="0 0 49 47" version="1.1" xmlns="http://www.w3.org/2000/svg" xmlns:xlink="http://www.w3.org/1999/xlink">
    <!-- Generator: Sketch 46.1 (44463) - http://www.bohemiancoding.com/sketch -->
    <title>Path 3</title>
    <desc>Created with Sketch.</desc>
    <defs></defs>
    <g id="Page-1" stroke="none" stroke-width="1" fill="none" fill-rule="evenodd">
        <g id="Desktop" transform="translate(-488.000000, -16.000000)" fill="#ED382D">
            <path d="M489.281997,57.0757208 C489.751273,56.5497955 490.715344,55.5495905 492.116733,54.4870459 L492.424347,54.2061329 L506.061861,44.2830602 C502.736019,43.2701404 499.498212,42.147199 498.514402,41.3343669 C487.900124,32.3187916 501.484092,21.6156076 503.928187,19.4674353 C505.590289,18.0065758 507.818984,16.2281142 511.191374,16.0217563 C512.125171,15.9646169 513.553967,15.9768498 514.992234,16.6109447 C515.997797,17.0542718 516.976412,17.9564042 517.927922,18.6933577 C524.597518,25.487818 530.653845,26.6868408 536.096901,22.2904261 C536.096901,22.6822363 535.351068,23.4702569 533.859402,24.6544878 L534.133939,24.4915922 L532.862817,25.4216344 C532.474707,25.7126049 532.051671,26.022128 531.593704,26.3502075 L521.824366,33.4981442 C525.037707,34.4285926 527.979113,35.25632 529.839564,36.5335955 C533.805562,38.8684676 540.458934,45.5339875 534.833553,51.337989 C531.083299,55.2073234 528.595451,57.592432 527.370008,58.4933147 C523.189057,61.4822637 520.197855,62.9824892 518.396403,62.9939911 C516.808925,63.0041269 514.883764,63.1005333 513.609523,61.931515 C502.371665,53.0596263 495.272182,53.898211 491.714678,55.5285171 L488,58.2464382 L489.281997,57.0757208 Z M496.777692,51.8240591 C497.214923,51.6481699 497.668537,51.4849499 498.138034,51.337989 C502.114969,50.0931372 508.238986,50.262496 511.191374,52.7956711 C515.243933,56.2728019 519.443733,58.7178578 522.398236,59.1877859 C524.738932,59.560085 526.442405,58.6760433 527.710144,57.4603351 C525.800064,51.9676944 519.161336,47.9676737 511.191374,45.7631629 C509.886141,45.4021321 508.343504,44.9671927 506.785746,44.5014606 L496.777692,51.8240591 Z M526.530309,29.3895911 C521.841572,30.0040633 517.210296,27.6376749 512.636481,22.2904261 C510.262144,20.152146 508.668683,19.1225085 507.856099,19.2015136 C506.750045,19.3090518 505.144812,19.6813223 504.713281,21.6738436 C504.395034,24.3121114 506.932849,25.5372027 508.969428,27.4901642 C512.148152,30.538375 516.840429,32.0449573 521.152164,33.3028942 L526.530309,29.3895911 Z M514.616922,38.0581359 C507.853964,35.8405427 502.963478,31.5577129 499.945464,25.2096464 C498.313744,26.5160782 498.087574,28.8225582 499.266954,32.1290863 C500.562284,35.0859387 505.799615,39.4681581 511.51561,40.3147456 L514.616922,38.0581359 Z M515.298701,38.2727819 L512.361754,40.4216591 C524.770736,41.9838813 529.827148,48.8719645 531.178314,51.3817328 C531.566246,52.1023097 531.855489,52.2961231 531.672282,52.1025949 C530.844115,51.2277708 531.340399,41.6681253 518.29837,39.0243143 C517.261856,38.8141977 516.261966,38.5636869 515.298701,38.2727819 Z" id="Path-3"></path>
        </g>
    </g>
</svg>